<svg width="707" height="161" viewBox="0 0 707 161" fill="none" xmlns="http://www.w3.org/2000/svg">
<path d="M643.867 71.7047V32.9615H652.02L652.79 38.2657C654.02 36.3183 655.631 34.8064 657.631 33.7302C659.685 32.6028 662.016 32.0391 664.634 32.0391C666.581 32.0391 668.326 32.2953 669.861 32.8078C671.454 33.3203 672.836 34.089 674.018 35.1139C675.248 36.1389 676.246 37.4201 677.016 38.9575C678.452 36.8051 680.322 35.1139 682.631 33.884C684.936 32.654 687.451 32.0391 690.167 32.0391C693.397 32.0391 696.14 32.7053 698.396 34.0377C700.655 35.3189 702.369 37.2407 703.551 39.8031C704.732 42.3143 705.318 45.4148 705.318 49.1043V71.7047H696.167V50.027C696.167 46.747 695.501 44.236 694.167 42.4936C692.834 40.7512 690.86 39.88 688.243 39.88C686.448 39.88 684.86 40.3156 683.477 41.1868C682.144 42.058 681.092 43.3392 680.322 45.0302C679.553 46.6701 679.168 48.6947 679.168 51.1034V71.7047H670.017V50.027C670.017 46.747 669.35 44.236 668.017 42.4936C666.684 40.7512 664.683 39.88 662.017 39.88C660.325 39.88 658.786 40.3156 657.403 41.1868C656.07 42.058 655.018 43.3392 654.248 45.0302C653.479 46.6701 653.094 48.6947 653.094 51.1034V71.7047H643.867Z" fill="white"/>
<path d="M611.801 72.6308C608.674 72.6308 605.984 72.0154 603.725 70.7856C601.523 69.5043 599.832 67.6085 598.65 65.0974C597.469 62.5348 596.883 59.3832 596.883 55.6422V32.9648H606.11V54.7196C606.11 58.0505 606.803 60.5876 608.186 62.3299C609.622 64.0209 611.774 64.8666 614.647 64.8666C616.495 64.8666 618.133 64.431 619.569 63.5598C621.059 62.6886 622.209 61.4328 623.033 59.7929C623.905 58.1019 624.339 56.0518 624.339 53.6431V32.9648H633.571V71.7082H625.418L624.724 65.2508C623.543 67.5056 621.825 69.2995 619.569 70.6317C617.368 71.9645 614.777 72.6308 611.801 72.6308Z" fill="white"/>
<path d="M581.878 71.6937C579.261 71.6937 576.978 71.2836 575.032 70.4638C573.135 69.6441 571.649 68.2859 570.571 66.3896C569.492 64.4934 568.955 61.9313 568.955 58.7023V40.7145H562.342V32.9505H568.955L570.034 22.7266H578.187V32.9505H588.725V40.7145H578.187V58.7023C578.187 60.65 578.594 62.0077 579.417 62.7765C580.29 63.4943 581.722 63.853 583.722 63.853H588.492V71.6937H581.878Z" fill="white"/>
<path d="M518.643 71.7047V32.9615H526.795L527.489 39.4188C528.67 37.1638 530.362 35.3702 532.563 34.0377C534.769 32.7053 537.387 32.0391 540.412 32.0391C543.54 32.0391 546.207 32.7053 548.408 34.0377C550.614 35.3189 552.306 37.2151 553.487 39.7262C554.717 42.2374 555.331 45.3633 555.331 49.1043V71.7047H546.104V49.95C546.104 46.7215 545.383 44.236 543.947 42.4936C542.511 40.7512 540.385 39.88 537.566 39.88C535.718 39.88 534.053 40.3156 532.563 41.1868C531.131 42.058 529.977 43.3392 529.104 45.0302C528.286 46.6701 527.874 48.6688 527.874 51.0265V71.7047H518.643Z" fill="white"/>
<path d="M491.292 72.6273C487.449 72.6273 484.061 71.8071 481.139 70.1672C478.217 68.4762 475.935 66.1189 474.293 63.0952C472.655 60.0716 471.832 56.5868 471.832 52.6405C471.832 48.5408 472.629 44.9537 474.217 41.8786C475.859 38.8038 478.141 36.3951 481.063 34.6527C484.039 32.9103 487.471 32.0391 491.368 32.0391C495.163 32.0391 498.47 32.8847 501.293 34.5758C504.112 36.267 506.292 38.5475 507.831 41.4174C509.366 44.236 510.135 47.4134 510.135 50.9496C510.135 51.4621 510.135 52.0256 510.135 52.6405C510.135 53.2555 510.086 53.8963 509.983 54.5622H478.45V48.6433H500.828C500.73 45.8249 499.781 43.621 497.982 42.0324C496.188 40.3925 493.959 39.5725 491.292 39.5725C489.395 39.5725 487.65 40.0081 486.062 40.8793C484.473 41.7505 483.216 43.0573 482.294 44.7998C481.372 46.4908 480.911 48.6433 480.911 51.2568V53.4862C480.911 55.895 481.345 57.9705 482.218 59.7129C483.14 61.4553 484.37 62.7876 485.909 63.7102C487.498 64.5814 489.265 65.017 491.216 65.017C493.369 65.017 495.136 64.5559 496.523 63.6333C497.96 62.7106 499.011 61.4808 499.678 59.9437H509.061C508.341 62.352 507.164 64.5299 505.522 66.4776C503.88 68.3738 501.857 69.8854 499.445 71.0129C497.033 72.0893 494.317 72.6273 491.292 72.6273Z" fill="white"/>
<path d="M401.953 71.7047V32.9615H410.106L410.875 38.2657C412.106 36.3183 413.721 34.8064 415.721 33.7302C417.772 32.6028 420.105 32.0391 422.72 32.0391C424.668 32.0391 426.412 32.2953 427.95 32.8078C429.54 33.3203 430.924 34.089 432.104 35.1139C433.334 36.1389 434.334 37.4201 435.103 38.9575C436.539 36.8051 438.411 35.1139 440.718 33.884C443.025 32.654 445.538 32.0391 448.257 32.0391C451.487 32.0391 454.23 32.7053 456.486 34.0377C458.741 35.3189 460.459 37.2407 461.64 39.8031C462.817 42.3143 463.408 45.4148 463.408 49.1043V71.7047H454.253V50.027C454.253 46.747 453.586 44.236 452.257 42.4936C450.924 40.7512 448.946 39.88 446.333 39.88C444.538 39.88 442.948 40.3156 441.564 41.1868C440.231 42.058 439.179 43.3392 438.411 45.0302C437.641 46.6701 437.257 48.6947 437.257 51.1034V71.7047H428.104V50.027C428.104 46.747 427.437 44.236 426.104 42.4936C424.771 40.7512 422.771 39.88 420.105 39.88C418.413 39.88 416.874 40.3156 415.49 41.1868C414.157 42.058 413.106 43.3392 412.337 45.0302C411.567 46.6701 411.183 48.6947 411.183 51.1034V71.7047H401.953Z" fill="white"/>
<path d="M373.441 72.6273C369.749 72.6273 366.416 71.7816 363.442 70.0907C360.519 68.3479 358.212 65.9651 356.52 62.9414C354.879 59.8667 354.059 56.3561 354.059 52.4102C354.059 48.3615 354.905 44.8253 356.597 41.8017C358.289 38.7269 360.596 36.3439 363.519 34.6527C366.493 32.9103 369.826 32.0391 373.518 32.0391C377.21 32.0391 380.517 32.9103 383.44 34.6527C386.414 36.3439 388.721 38.7013 390.362 41.7249C392.054 44.7484 392.9 48.2846 392.9 52.3333C392.9 56.3815 392.054 59.9177 390.362 62.9414C388.67 65.9651 386.337 68.3479 383.363 70.0907C380.44 71.7816 377.133 72.6273 373.441 72.6273ZM373.441 64.7097C375.287 64.7097 376.953 64.2482 378.44 63.326C379.979 62.4034 381.209 61.0197 382.132 59.1749C383.055 57.3297 383.517 55.0493 383.517 52.3333C383.517 49.6169 383.055 47.362 382.132 45.5686C381.261 43.7235 380.056 42.3399 378.517 41.4174C377.03 40.495 375.364 40.0337 373.518 40.0337C371.723 40.0337 370.056 40.495 368.519 41.4174C366.98 42.3399 365.75 43.7235 364.826 45.5686C363.904 47.362 363.442 49.6169 363.442 52.3333C363.442 55.0493 363.904 57.3297 364.826 59.1749C365.75 61.0197 366.955 62.4034 368.442 63.326C369.98 64.2482 371.646 64.7097 373.441 64.7097Z" fill="white"/>
<path d="M288.512 71.7009V17.8906H299.434L316.662 52.6367L333.737 17.8906H344.736V71.7009H335.506V33.7262L320.277 64.1674H313.047L297.741 33.8031V71.7009H288.512Z" fill="white"/>
<path d="M249.674 71.7009V17.8906H258.903V71.7009H249.674Z" fill="#FF5E38"/>
<path d="M192.586 71.7009L212.276 17.8906H222.582L242.272 71.7009H232.504L217.352 28.6526L202.2 71.7009H192.586ZM201.354 59.0167L203.815 51.714H230.35L232.812 59.0167H201.354Z" fill="#FF5E38"/>
<path d="M481.749 143.1C478.313 143.1 475.315 142.562 472.751 141.485C470.24 140.358 468.24 138.821 466.75 136.873C465.318 134.875 464.468 132.594 464.213 130.032H473.444C473.699 131.108 474.16 132.107 474.827 133.03C475.494 133.901 476.393 134.593 477.521 135.105C478.697 135.618 480.085 135.874 481.673 135.874C483.212 135.874 484.47 135.669 485.441 135.259C486.416 134.798 487.132 134.208 487.598 133.491C488.059 132.773 488.287 132.005 488.287 131.185C488.287 129.955 487.956 129.007 487.289 128.341C486.622 127.674 485.647 127.162 484.367 126.803C483.136 126.393 481.646 126.009 479.906 125.65C478.058 125.291 476.263 124.856 474.518 124.343C472.827 123.779 471.292 123.088 469.905 122.268C468.571 121.448 467.497 120.397 466.674 119.116C465.904 117.835 465.519 116.271 465.519 114.427C465.519 112.172 466.11 110.148 467.291 108.354C468.522 106.56 470.263 105.151 472.522 104.126C474.827 103.05 477.57 102.512 480.751 102.512C485.262 102.512 488.851 103.562 491.517 105.663C494.238 107.713 495.827 110.609 496.287 114.35H487.517C487.262 112.915 486.546 111.813 485.365 111.044C484.188 110.225 482.622 109.814 480.675 109.814C478.675 109.814 477.136 110.199 476.057 110.967C475.033 111.685 474.518 112.659 474.518 113.889C474.518 114.657 474.827 115.375 475.444 116.041C476.111 116.656 477.06 117.194 478.29 117.655C479.521 118.065 481.033 118.475 482.828 118.885C485.7 119.449 488.237 120.115 490.443 120.884C492.645 121.653 494.39 122.78 495.67 124.266C496.954 125.753 497.594 127.854 497.594 130.57C497.648 133.03 497.003 135.208 495.67 137.104C494.39 139 492.569 140.486 490.211 141.562C487.853 142.587 485.034 143.1 481.749 143.1Z" fill="white"/>
<path d="M435.723 142.177V103.434H443.953L444.799 110.66C445.721 108.969 446.875 107.534 448.261 106.355C449.643 105.125 451.259 104.177 453.107 103.511C455.004 102.845 457.08 102.512 459.336 102.512V112.274H456.105C454.566 112.274 453.107 112.479 451.72 112.889C450.337 113.248 449.133 113.863 448.104 114.734C447.132 115.554 446.363 116.707 445.798 118.194C445.234 119.628 444.952 121.448 444.952 123.651V142.177H435.723Z" fill="white"/>
<path d="M408.373 143.1C404.528 143.1 401.143 142.28 398.22 140.64C395.298 138.949 393.016 136.591 391.375 133.568C389.734 130.544 388.914 127.059 388.914 123.113C388.914 119.013 389.709 115.426 391.298 112.351C392.939 109.276 395.221 106.868 398.144 105.125C401.117 103.383 404.553 102.512 408.45 102.512C412.245 102.512 415.552 103.357 418.372 105.048C421.192 106.74 423.371 109.02 424.91 111.89C426.448 114.708 427.217 117.886 427.217 121.422C427.217 121.935 427.217 122.498 427.217 123.113C427.217 123.728 427.166 124.369 427.063 125.035H395.529V119.116H417.91C417.808 116.297 416.859 114.093 415.065 112.505C413.27 110.865 411.04 110.045 408.373 110.045C406.476 110.045 404.733 110.481 403.143 111.352C401.553 112.223 400.297 113.53 399.374 115.272C398.451 116.963 397.99 119.116 397.99 121.729V123.959C397.99 126.367 398.425 128.443 399.297 130.185C400.22 131.928 401.451 133.26 402.989 134.183C404.579 135.054 406.348 135.489 408.296 135.489C410.45 135.489 412.219 135.028 413.603 134.106C415.039 133.184 416.09 131.953 416.757 130.416H426.14C425.423 132.824 424.243 135.003 422.602 136.95C420.961 138.846 418.936 140.358 416.526 141.485C414.116 142.562 411.398 143.1 408.373 143.1Z" fill="white"/>
<path d="M343.781 142.177V103.434H351.934L352.626 109.891C353.806 107.636 355.498 105.843 357.703 104.51C359.908 103.178 362.523 102.512 365.548 102.512C368.676 102.512 371.342 103.178 373.547 104.51C375.752 105.792 377.444 107.687 378.623 110.199C379.854 112.71 380.469 115.836 380.469 119.577V142.177H371.24V120.423C371.24 117.194 370.522 114.708 369.086 112.966C367.65 111.224 365.522 110.352 362.702 110.352C360.856 110.352 359.19 110.788 357.703 111.659C356.267 112.53 355.113 113.812 354.242 115.503C353.421 117.143 353.011 119.142 353.011 121.499V142.177H343.781Z" fill="white"/>
<path d="M328.255 142.166C325.64 142.166 323.358 141.757 321.409 140.937C319.512 140.117 318.025 138.759 316.949 136.862C315.872 134.966 315.333 132.404 315.333 129.175V111.187H308.719V103.423H315.333L316.41 93.1992H324.563V103.423H335.1V111.187H324.563V129.175C324.563 131.123 324.973 132.481 325.794 133.249C326.665 133.967 328.101 134.326 330.101 134.326H334.869V142.166H328.255Z" fill="white"/>
<path d="M280.855 142.177V103.434H289.085L289.931 110.66C290.855 108.969 292.008 107.534 293.393 106.355C294.777 105.125 296.392 104.177 298.238 103.511C300.136 102.845 302.212 102.512 304.468 102.512V112.274H301.238C299.7 112.274 298.238 112.479 296.854 112.889C295.469 113.248 294.264 113.863 293.239 114.734C292.265 115.554 291.495 116.707 290.931 118.194C290.367 119.628 290.085 121.448 290.085 123.651V142.177H280.855Z" fill="white"/>
<path d="M249.597 143.1C246.418 143.1 243.778 142.562 241.675 141.485C239.573 140.409 238.009 138.974 236.984 137.181C235.958 135.387 235.445 133.44 235.445 131.338C235.445 128.879 236.061 126.752 237.291 124.958C238.573 123.164 240.445 121.781 242.906 120.807C245.367 119.782 248.392 119.27 251.982 119.27H261.75C261.75 117.22 261.468 115.529 260.904 114.196C260.34 112.813 259.468 111.788 258.289 111.121C257.109 110.455 255.597 110.122 253.751 110.122C251.649 110.122 249.854 110.609 248.367 111.582C246.88 112.505 245.957 113.94 245.598 115.887H236.522C236.83 113.12 237.752 110.763 239.291 108.815C240.829 106.816 242.854 105.279 245.367 104.203C247.931 103.075 250.725 102.512 253.751 102.512C257.391 102.512 260.494 103.152 263.057 104.433C265.621 105.663 267.57 107.457 268.903 109.814C270.287 112.121 270.98 114.914 270.98 118.194V142.177H263.134L262.211 135.951C261.699 136.976 261.032 137.924 260.211 138.795C259.443 139.666 258.545 140.435 257.519 141.101C256.494 141.716 255.315 142.203 253.982 142.562C252.7 142.92 251.238 143.1 249.597 143.1ZM251.674 135.797C253.161 135.797 254.469 135.541 255.597 135.028C256.776 134.464 257.776 133.696 258.596 132.722C259.468 131.697 260.135 130.57 260.596 129.34C261.058 128.11 261.365 126.803 261.519 125.419V125.265H252.982C251.187 125.265 249.7 125.496 248.521 125.957C247.341 126.367 246.495 126.982 245.982 127.803C245.47 128.622 245.213 129.57 245.213 130.646C245.213 131.723 245.47 132.645 245.982 133.414C246.495 134.183 247.239 134.772 248.213 135.182C249.187 135.592 250.341 135.797 251.674 135.797Z" fill="white"/>
<path d="M192.9 142.17V88.3594H212.282C216.59 88.3594 220.153 89.1027 222.973 90.5888C225.794 92.0235 227.896 93.9711 229.28 96.4308C230.665 98.891 231.357 101.709 231.357 104.887C231.357 107.859 230.69 110.601 229.357 113.112C228.024 115.572 225.948 117.571 223.127 119.108C220.307 120.594 216.692 121.338 212.282 121.338H202.13V142.17H192.9ZM202.13 113.804H211.744C215.385 113.804 218 113.009 219.589 111.421C221.179 109.781 221.974 107.603 221.974 104.887C221.974 102.068 221.179 99.8646 219.589 98.2761C218 96.6871 215.385 95.8928 211.744 95.8928H202.13V113.804Z" fill="white"/>
<path d="M611.071 101.168H703.388L703.138 102.927L701.894 110.3L700.731 117.086L696.914 139.623L696.412 142.472L696.332 142.807H602.023L602.771 139.288L609.908 106.446L611.071 101.168Z" fill="url(#paint0_linear_123_1864)"/>
<path d="M542.252 101.168H550.221L550.056 102.257L548.561 109.294L545.823 122.28L541.505 142.807H533.535L533.701 141.801L535.03 135.434L541.505 104.687L542.252 101.168Z" fill="url(#paint1_linear_123_1864)"/>
<path d="M599.768 101.168H606.825L606.66 102.257L598.274 142.053L598.108 142.807H590.721L590.886 141.801L595.204 121.945L596.784 114.657L598.193 108.205L599.522 102.09L599.768 101.168Z" fill="url(#paint2_linear_123_1864)"/>
<path d="M565.734 101.168H572.876L572.461 103.346L571.05 110.048L569.802 115.913L564.159 142.723L564.074 142.807H556.771L556.852 142.137L558.182 135.937L565.569 102.006L565.734 101.168Z" fill="url(#paint3_linear_123_1864)"/>
<path d="M554.444 101.168H561.586L560.342 107.032L559.344 111.892L558.597 115.411L557.766 119.348L556.44 125.548L555.608 129.569L552.951 142.137L552.784 142.807H545.396L545.979 140.042L547.474 133.172L549.464 123.956L554.113 102.592L554.444 101.168Z" fill="url(#paint4_linear_123_1864)"/>
<path d="M577.118 101.168H584.175L584.094 101.838L583.016 106.949L582.268 110.468L581.602 113.651L580.523 118.762L578.863 126.721L578.116 130.24L577.288 134.177L576.621 137.277L575.794 141.299L575.458 142.807H568.07L568.486 140.712L575.794 107.116L577.038 101.419L577.118 101.168Z" fill="url(#paint5_linear_123_1864)"/>
<path d="M588.408 101.168H595.55L594.637 105.608L592.892 113.903L590.569 124.878L589.572 129.653L588.493 134.764L587.249 140.712L586.833 142.639L586.748 142.807H579.445L579.526 142.137L580.193 139.037L582.68 127.559L583.428 124.208L583.924 121.862L585.007 116.919L585.67 113.903L586.251 111.138L587.33 106.195L588.162 102.341L588.408 101.168Z" fill="url(#paint6_linear_123_1864)"/>
<path d="M143.19 0H17.8987C8.01353 0 0 8.00912 0 17.8889V143.111C0 152.991 8.01353 161 17.8987 161H143.19C153.075 161 161.089 152.991 161.089 143.111V17.8889C161.089 8.00912 153.075 0 143.19 0Z" fill="#F2380C"/>
<path fill-rule="evenodd" clip-rule="evenodd" d="M85.0319 45.4499C85.0319 42.9454 84.4502 40.4723 83.327 38.2317C82.3556 36.2932 81.7851 34.179 81.649 32.0153L81.3268 26.832L81.0047 32.0198C80.8704 34.1799 80.2977 36.2908 79.3267 38.2317C78.2067 40.4748 77.6245 42.9475 77.6263 45.4544V119.273C77.6263 121.777 78.208 124.25 79.3267 126.496C80.2977 128.432 80.866 130.543 81.0047 132.712L81.3268 137.891L81.649 132.707C81.7851 130.544 82.3556 128.43 83.327 126.491C84.4466 124.25 85.0288 121.778 85.0274 119.273L85.0319 45.4499ZM64.8063 45.6333C65.9263 47.8761 66.5085 50.3492 66.5067 52.8559V111.867C66.5067 114.371 65.925 116.849 64.8063 119.09C63.8353 121.028 63.2643 123.142 63.1283 125.306L62.8061 130.489L62.484 125.301C62.347 123.139 61.7765 121.027 60.806 119.09C59.6859 116.847 59.1038 114.374 59.1056 111.867V52.8604C59.1056 50.3559 59.6873 47.8828 60.806 45.6377C61.777 43.7013 62.3452 41.5859 62.484 39.4213L62.8061 34.2425L63.1283 39.4258C63.2626 41.5859 63.8353 43.7013 64.8063 45.6422V45.6333ZM57.2486 60.2574C57.2486 57.753 56.6669 55.2798 55.5482 53.0393C54.5767 51.1005 54.0062 48.9865 53.8702 46.8229L53.548 41.6396L53.2214 46.8273C53.0871 48.9892 52.5179 51.1023 51.5478 53.0393C50.426 55.2816 49.8425 57.7548 49.843 60.2619V104.465C49.843 106.97 50.4247 109.443 51.5478 111.684C52.5188 113.624 53.0871 115.735 53.2214 117.9L53.548 123.088L53.8702 117.9C54.0049 115.737 54.5741 113.622 55.5437 111.684C56.6646 109.442 57.2486 106.971 57.2486 104.465V60.2619V60.2574ZM46.2856 67.8468C47.4074 70.0892 47.9909 72.5623 47.9905 75.0694V89.6578C47.9905 92.1623 47.4088 94.6354 46.2856 96.876C45.3159 98.8147 44.7468 100.929 44.6121 103.092L44.2854 108.28L43.9632 103.092C43.8286 100.929 43.2594 98.8147 42.2897 96.876C41.1672 94.6349 40.5819 92.164 40.5804 89.6578V75.0694C40.5804 72.565 41.1621 70.0874 42.2897 67.8468C43.2594 65.9081 43.8286 63.7936 43.9632 61.6304L44.2854 56.4471L44.6121 61.6349C44.7461 63.7967 45.3155 65.9099 46.2856 67.8468ZM38.7279 82.3636V82.4709V82.2518V82.3636ZM31.3223 82.4665V82.3591C31.339 84.8287 31.9222 87.2611 33.0271 89.47C33.998 91.4082 34.5672 93.5227 34.7007 95.6864L35.0273 100.87L35.3495 95.6819C35.4841 93.5187 36.0533 91.4042 37.023 89.4655C38.1279 87.2567 38.7112 84.8242 38.7279 82.3547C38.7126 79.8856 38.1309 77.4531 37.0275 75.2438C36.0568 73.3069 35.4861 71.1942 35.3495 69.0319L35.0273 63.8441L34.7007 69.0319C34.566 71.1951 33.9968 73.3096 33.0271 75.2483C31.9238 77.4576 31.3376 79.89 31.3223 82.3591V82.2518V82.4754V82.4665ZM74.0644 38.2273C75.1831 40.4678 75.7693 42.941 75.7693 45.4454V119.273C75.7693 121.777 75.1876 124.25 74.0689 126.496C73.0984 128.433 72.5278 130.545 72.3909 132.707L72.0687 137.895L71.7421 132.707C71.6074 130.544 71.0382 128.43 70.0685 126.491C68.9476 124.25 68.3637 121.779 68.3637 119.273V45.4499C68.3637 42.9454 68.9454 40.4723 70.0685 38.2317C71.0396 36.2908 71.6078 34.1799 71.7421 32.0153L72.0687 26.832L72.3909 32.0198C72.5251 34.1799 73.0934 36.2863 74.0644 38.2273ZM92.5852 38.2273C93.7061 40.4685 94.29 42.9397 94.29 45.4454V119.273C94.29 121.777 93.7083 124.25 92.5852 126.496C91.6164 128.433 91.0472 130.546 90.9116 132.707L90.585 137.895L90.2628 132.707C90.1277 130.544 89.5585 128.43 88.5893 126.491C87.4684 124.25 86.8844 121.779 86.8844 119.273V45.4499C86.8844 42.9454 87.4661 40.4723 88.5848 38.2317C89.5603 36.2908 90.1286 34.1799 90.2628 32.0153L90.585 26.832L90.9116 32.0198C91.0459 34.1799 91.6141 36.2863 92.5852 38.2273ZM103.548 52.8514C103.548 50.347 102.966 47.8738 101.848 45.6288C100.877 43.6902 100.306 41.5761 100.17 39.4124L99.8476 34.2336L99.5209 39.4169C99.3862 41.5803 98.817 43.6944 97.8474 45.6333C96.7278 47.8747 96.1457 50.3461 96.147 52.8514V111.862C96.147 114.367 96.7287 116.844 97.8474 119.085C98.8184 121.023 99.3876 123.138 99.5209 125.301L99.8476 130.485L100.17 125.297C100.305 123.135 100.876 121.022 101.848 119.085C102.968 116.842 103.55 114.369 103.548 111.862V52.8604V52.8514ZM111.106 53.0303C112.228 55.274 112.812 57.7485 112.811 60.2574V104.461C112.811 106.965 112.229 109.438 111.106 111.679C110.136 113.618 109.567 115.732 109.432 117.895L109.106 123.083L108.784 117.895C108.649 115.732 108.08 113.618 107.11 111.679C105.989 109.438 105.406 106.967 105.405 104.461V60.2574C105.405 57.7485 105.987 55.2754 107.106 53.0348C108.078 51.0965 108.649 48.9825 108.784 46.8184L109.106 41.6351L109.432 46.8229C109.567 48.9847 110.136 51.0979 111.106 53.0348V53.0303ZM122.069 75.0649C122.069 72.5605 121.487 70.0829 120.368 67.8423C119.397 65.9036 118.827 63.7896 118.69 61.6259L118.368 56.4426L118.042 61.6304C117.906 63.7923 117.337 65.9049 116.368 67.8423C115.246 70.0847 114.663 72.5578 114.663 75.0649V89.6533C114.663 92.1578 115.245 94.6309 116.368 96.8715C117.339 98.8124 117.907 100.923 118.042 103.088L118.368 108.276L118.69 103.088C118.825 100.923 119.397 98.8124 120.364 96.8715C121.487 94.6305 122.072 92.1596 122.073 89.6533L122.069 75.0649ZM131.331 82.3547V82.4665V82.2473V82.3547ZM123.926 82.3547C123.939 84.8278 124.525 87.2607 125.626 89.4655C126.597 91.4064 127.17 93.5218 127.304 95.6819L127.626 100.87L127.953 95.6819C128.088 93.5187 128.657 91.4042 129.627 89.4655C130.73 87.2562 131.316 84.8238 131.331 82.3547C131.316 79.8856 130.73 77.4531 129.627 75.2438C128.657 73.3065 128.088 71.1938 127.953 69.0319L127.626 63.8441L127.304 69.0319C127.17 71.1965 126.597 73.3074 125.631 75.2483C124.526 77.4571 123.942 79.8851 123.926 82.3547ZM123.926 82.3547V82.2473V82.4709V82.3547Z" fill="white"/>
<defs>
<linearGradient id="paint0_linear_123_1864" x1="533.534" y1="121.988" x2="703.388" y2="121.988" gradientUnits="userSpaceOnUse">
<stop stop-color="#F2380C"/>
<stop offset="1" stop-color="#F2380C" stop-opacity="0.16"/>
</linearGradient>
<linearGradient id="paint1_linear_123_1864" x1="533.535" y1="121.988" x2="703.391" y2="121.988" gradientUnits="userSpaceOnUse">
<stop stop-color="#F2380C"/>
<stop offset="1" stop-color="#F2380C" stop-opacity="0.16"/>
</linearGradient>
<linearGradient id="paint2_linear_123_1864" x1="533.534" y1="121.988" x2="703.389" y2="121.988" gradientUnits="userSpaceOnUse">
<stop stop-color="#F2380C"/>
<stop offset="1" stop-color="#F2380C" stop-opacity="0.16"/>
</linearGradient>
<linearGradient id="paint3_linear_123_1864" x1="533.535" y1="121.988" x2="703.389" y2="121.988" gradientUnits="userSpaceOnUse">
<stop stop-color="#F2380C"/>
<stop offset="1" stop-color="#F2380C" stop-opacity="0.16"/>
</linearGradient>
<linearGradient id="paint4_linear_123_1864" x1="533.534" y1="121.988" x2="703.389" y2="121.988" gradientUnits="userSpaceOnUse">
<stop stop-color="#F2380C"/>
<stop offset="1" stop-color="#F2380C" stop-opacity="0.16"/>
</linearGradient>
<linearGradient id="paint5_linear_123_1864" x1="533.535" y1="121.988" x2="703.389" y2="121.988" gradientUnits="userSpaceOnUse">
<stop stop-color="#F2380C"/>
<stop offset="1" stop-color="#F2380C" stop-opacity="0.16"/>
</linearGradient>
<linearGradient id="paint6_linear_123_1864" x1="533.535" y1="121.988" x2="703.39" y2="121.988" gradientUnits="userSpaceOnUse">
<stop stop-color="#F2380C"/>
<stop offset="1" stop-color="#F2380C" stop-opacity="0.16"/>
</linearGradient>
</defs>
</svg>
